<svg width="55" height="55" viewBox="0 0 55 55" fill="none" xmlns="http://www.w3.org/2000/svg">
<path d="M27.5373 27.4808V46.4H27.4626C17.0534 46.4 8.58201 37.9113 8.58201 27.4808C8.58201 17.0502 17.0534 8.56156 27.4626 8.56156C37.8718 8.56156 46.3432 17.0502 46.3432 27.4808C46.3469 30.7513 45.499 33.9662 43.8832 36.8078L50.111 43.0489C52.2756 39.8759 53.7529 36.2838 54.4477 32.5038C55.1426 28.7239 55.0395 24.8401 54.1451 21.1025C53.2508 17.3649 51.585 13.8565 49.2552 10.8033C46.9253 7.75009 43.983 5.21979 40.6178 3.37542C37.2526 1.53105 33.5392 0.413502 29.7167 0.0947817C25.8943 -0.223939 22.0476 0.263233 18.4245 1.52491C14.8014 2.78659 11.4822 4.79479 8.68075 7.42015C5.87933 10.0455 3.6578 13.2298 2.15929 16.7678C0.107871 21.6422 -0.498771 27.0056 0.411933 32.2163C1.32264 37.4271 3.71213 42.2647 7.29456 46.1504C10.877 50.0361 15.5007 52.8053 20.6126 54.1269C25.7245 55.4485 31.1081 55.2665 36.1194 53.6026V48.242L39.8922 52.0225L42.8633 54.9996H55L27.5373 27.4808Z" fill="white"/>
</svg>
